Coordinates
version=1
nRows=5
nColumns=42
inDegrees=yes

Units are S.I. units (second, meters, Newtons, ...)
If the header above contains a line with 'inDegrees', this indicates whether rotational values are in degrees (yes) or radians (no).

endheader
time	pelvis_tilt	pelvis_list	pelvis_rotation	pelvis_tx	pelvis_ty	pelvis_tz	hip_flexion_r	hip_adduction_r	hip_rotation_r	knee_angle_r	knee_adduction_r	knee_angle_r_beta	ankle_angle_r	subtalar_angle_r	mtp_angle_r	hip_flexion_l	hip_adduction_l	hip_rotation_l	knee_angle_l	knee_adduction_l	knee_angle_l_beta	ankle_angle_l	subtalar_angle_l	mtp_angle_l	lumbar_extension	lumbar_bending	lumbar_rotation	arm_flex_r	arm_add_r	arm_rot_r	elbow_flex_r	pro_sup_r	wrist_flex_r	wrist_dev_r	arm_flex_l	arm_add_l	arm_rot_l	elbow_flex_l	pro_sup_l	wrist_flex_l	wrist_dev_l
      0.98000000	     -0.24780879	      2.23479098	      0.88635979	     -0.95192579	      0.89037622	     -0.22336274	     -2.08361041	    -12.36107409	     -1.82643970	     54.05965764	     11.44667339	      0.94351902	     -5.51914444	     -2.68237241	     -7.59135454	     13.89991505	     -3.72983353	     -2.15012540	     18.00906624	     17.41116722	      0.31431750	      6.23313760	     -2.89157348	     -7.59135454	    -13.70127872	     -1.65706859	      1.83312071	     -1.24007894	    -13.88804801	     -3.58386676	     17.89308783	     90.00000001	      0.00000000	      0.00000000	     -9.38758387	     -8.34041411	      0.28309951	     19.60894687	     90.00000001	      0.00000000	      0.00000000
      0.99000000	     -0.04439810	      1.93134649	      0.98955931	     -0.94121331	      0.89243392	     -0.22419177	     -0.59594881	    -11.88964361	     -1.68520333	     55.60714218	     10.97606316	      0.97052772	     -3.84337189	     -3.50589879	     -7.58995077	     12.68989025	     -3.98676189	     -2.11477567	     17.61033249	     17.39945887	      0.30735828	      6.68921769	     -2.40395832	     -7.58995077	    -13.97351034	     -1.24775150	      1.61319301	     -1.24071809	    -13.90438091	     -3.58896405	     17.89918619	     90.00000001	      0.00000000	      0.00000000	     -9.02394593	     -8.58872789	      0.23379950	     19.87990363	     90.00000001	      0.00000000	      0.00000000
      1.00000000	     -0.14761158	      1.64786223	      0.94461364	     -0.93041123	      0.89403026	     -0.22477360	      1.29940794	    -11.43764988	     -1.64202152	     56.97340100	     10.38390611	      0.99437343	     -1.98788034	     -4.37911518	     -7.58793248	     11.59654910	     -4.32268471	     -2.12713859	     16.76378206	     17.56686849	      0.29258319	      7.27876004	     -1.74117691	     -7.58793248	    -13.84076612	     -0.89023136	      1.55320369	     -1.31592688	    -13.89749073	     -3.63812421	     17.77443667	     90.00000001	      0.00000000	      0.00000000	     -8.73208242	     -8.82423166	      0.13721193	     20.12688995	     90.00000001	      0.00000000	      0.00000000
      1.01000000	     -0.05999628	      1.34068678	      1.07132287	     -0.91980351	      0.89579229	     -0.22566467	      2.85395948	    -10.98555181	     -1.77824395	     57.93092698	      9.91948360	      1.01108541	     -0.15878353	     -4.97761934	     -7.58657933	     10.45441886	     -4.59293334	     -2.08792068	     16.21460585	     17.57229310	      0.28299826	      7.68423986	     -1.21882256	     -7.58657933	    -13.96081790	     -0.44484351	      1.30740292	     -1.33182734	    -13.92575233	     -3.68160886	     17.74781543	     90.00000001	      0.00000000	      0.00000000	     -8.38374857	     -9.05613819	      0.08521159	     20.38089783	     90.00000001	      0.00000000	      0.00000000
      1.02000000	     -0.04488061	      1.00353355	      1.24578631	     -0.90900273	      0.89735233	     -0.22652697	      4.38849358	    -10.52212840	     -2.11691352	     58.52627947	      9.48355927	      1.02147628	      1.73006167	     -5.42886598	     -7.58522990	      9.29640774	     -4.92801701	     -2.03130413	     15.46260795	     17.63982536	      0.26987342	      8.15391327	     -0.60236840	     -7.58522990	    -13.94890239	      0.04188537	      1.01277006	     -1.38744719	    -13.92916173	     -3.75628651	     17.67207070	     90.00000001	      0.00000000	      0.00000000	     -8.09381401	     -9.28440716	      0.03205481	     20.62944192	     90.00000001	      0.00000000	      0.00000000
